<svg width="71" height="28" viewBox="0 0 71 28" fill="none" xmlns="http://www.w3.org/2000/svg">
<rect x="0.5" y="0.5" width="70" height="27" rx="3.5" fill="white"/>
<path d="M9.19629 9.04688H10.5156V17.9268H15.4238V9.04688H16.7363V17.8994H17.7822L17.6592 21.3994H16.4766V19H9.19629V9.04688ZM21.8586 19.1367C20.856 19.1367 20.0402 18.8086 19.4113 18.1523C18.7824 17.4915 18.468 16.6097 18.468 15.5068V15.2744C18.468 14.5407 18.607 13.8867 18.885 13.3125C19.1675 12.7337 19.5594 12.2826 20.0608 11.959C20.5666 11.6309 21.1135 11.4668 21.7014 11.4668C22.663 11.4668 23.4104 11.7835 23.9436 12.417C24.4768 13.0505 24.7434 13.9574 24.7434 15.1377V15.6641H19.7326C19.7509 16.3932 19.9628 16.9834 20.3684 17.4346C20.7785 17.8812 21.2981 18.1045 21.927 18.1045C22.3736 18.1045 22.7518 18.0133 23.0617 17.8311C23.3716 17.6488 23.6428 17.4072 23.8752 17.1064L24.6477 17.708C24.0279 18.6605 23.0982 19.1367 21.8586 19.1367ZM21.7014 12.5059C21.191 12.5059 20.7626 12.6927 20.4162 13.0664C20.0699 13.4355 19.8557 13.9551 19.7736 14.625H23.4787V14.5293C23.4423 13.8867 23.2691 13.39 22.9592 13.0391C22.6493 12.6836 22.23 12.5059 21.7014 12.5059ZM31.8481 19H30.5834V15.8418H27.186V19H25.9145V11.6035H27.186V14.8096H30.5834V11.6035H31.8481V19ZM38.0436 19C37.9707 18.8542 37.9114 18.5944 37.8658 18.2207C37.278 18.8314 36.5761 19.1367 35.7604 19.1367C35.0312 19.1367 34.4319 18.9316 33.9625 18.5215C33.4977 18.1068 33.2653 17.5827 33.2653 16.9492C33.2653 16.179 33.5569 15.582 34.1403 15.1582C34.7281 14.7298 35.553 14.5156 36.6149 14.5156H37.8453V13.9346C37.8453 13.4925 37.7132 13.1416 37.4489 12.8818C37.1845 12.6175 36.7949 12.4854 36.2799 12.4854C35.8287 12.4854 35.4505 12.5993 35.1451 12.8271C34.8398 13.055 34.6871 13.3307 34.6871 13.6543H33.4156C33.4156 13.2852 33.5455 12.9297 33.8053 12.5879C34.0696 12.2415 34.4251 11.9681 34.8717 11.7676C35.3229 11.5671 35.8173 11.4668 36.3551 11.4668C37.2073 11.4668 37.875 11.681 38.358 12.1094C38.8411 12.5332 39.0918 13.1188 39.11 13.8662V17.2705C39.11 17.9495 39.1966 18.4896 39.3698 18.8906V19H38.0436ZM35.9449 18.0361C36.3414 18.0361 36.7174 17.9336 37.0729 17.7285C37.4283 17.5234 37.6858 17.2568 37.8453 16.9287V15.4111H36.8541C35.3046 15.4111 34.5299 15.8646 34.5299 16.7715C34.5299 17.168 34.6621 17.4779 34.9264 17.7012C35.1907 17.9245 35.5302 18.0361 35.9449 18.0361Z" fill="#99A0A3"/>
<path d="M58.5 12.2426L57.4393 13.3033L54.2574 10.1213L51.0754 13.3033L50.0147 12.2426L54.2574 8L58.5 12.2426Z" fill="black" fill-opacity="0.32"/>
<path d="M58.5 15.8325L57.4393 14.7718L54.2574 17.9538L51.0754 14.7718L50.0147 15.8325L54.2574 20.0751L58.5 15.8325Z" fill="black" fill-opacity="0.32"/>
<rect x="0.5" y="0.5" width="70" height="27" rx="3.5" stroke="#E5E5E5"/>
</svg>
