<svg width="89" height="28" viewBox="0 0 89 28" fill="none" xmlns="http://www.w3.org/2000/svg">
<rect x="0.5" y="0.5" width="88" height="27" rx="3.5" fill="white"/>
<path d="M10.4678 15.1035V19H9.15527V9.04688H12.8262C13.9154 9.04688 14.7676 9.32487 15.3828 9.88086C16.0026 10.4368 16.3125 11.1729 16.3125 12.0889C16.3125 13.055 16.0094 13.8001 15.4033 14.3242C14.8018 14.8438 13.9382 15.1035 12.8125 15.1035H10.4678ZM10.4678 14.0303H12.8262C13.528 14.0303 14.0658 13.8662 14.4395 13.5381C14.8132 13.2054 15 12.7269 15 12.1025C15 11.5101 14.8132 11.0361 14.4395 10.6807C14.0658 10.3252 13.5531 10.1406 12.9014 10.127H10.4678V14.0303ZM20.3547 19.1367C19.3521 19.1367 18.5363 18.8086 17.9074 18.1523C17.2785 17.4915 16.9641 16.6097 16.9641 15.5068V15.2744C16.9641 14.5407 17.1031 13.8867 17.3811 13.3125C17.6636 12.7337 18.0555 12.2826 18.5568 11.959C19.0627 11.6309 19.6096 11.4668 20.1975 11.4668C21.1591 11.4668 21.9065 11.7835 22.4397 12.417C22.9729 13.0505 23.2395 13.9574 23.2395 15.1377V15.6641H18.2287C18.2469 16.3932 18.4589 16.9834 18.8645 17.4346C19.2746 17.8812 19.7941 18.1045 20.4231 18.1045C20.8697 18.1045 21.2479 18.0133 21.5578 17.8311C21.8677 17.6488 22.1389 17.4072 22.3713 17.1064L23.1438 17.708C22.524 18.6605 21.5943 19.1367 20.3547 19.1367ZM20.1975 12.5059C19.6871 12.5059 19.2587 12.6927 18.9123 13.0664C18.566 13.4355 18.3518 13.9551 18.2697 14.625H21.9748V14.5293C21.9384 13.8867 21.7652 13.39 21.4553 13.0391C21.1454 12.6836 20.7261 12.5059 20.1975 12.5059ZM29.0863 11.6035H30.351V19H29.0863V13.6064L25.6752 19H24.4106V11.6035H25.6752V17.0039L29.0863 11.6035ZM29.4281 8.91016C29.4281 9.46159 29.239 9.90592 28.8608 10.2432C28.4871 10.5758 27.9949 10.7422 27.3842 10.7422C26.7735 10.7422 26.2791 10.5736 25.9008 10.2363C25.5225 9.89909 25.3334 9.45703 25.3334 8.91016H26.3656C26.3656 9.22917 26.4522 9.47982 26.6254 9.66211C26.7986 9.83984 27.0515 9.92871 27.3842 9.92871C27.7032 9.92871 27.9516 9.83984 28.1293 9.66211C28.3116 9.48438 28.4028 9.23372 28.4028 8.91016H29.4281ZM37.4694 12.6289H34.9879V19H33.7233V12.6289H31.2897V11.6035H37.4694V12.6289ZM43.077 11.6035H44.3416V19H43.077V13.6064L39.6659 19H38.4012V11.6035H39.6659V17.0039L43.077 11.6035ZM52.0069 19H50.7422V15.8418H47.3448V19H46.0733V11.6035H47.3448V14.8096H50.7422V11.6035H52.0069V19ZM58.4143 12.6494H55.0032V19H53.7317V11.6035H58.4143V12.6494Z" fill="#41522E"/>
<path d="M76.5 12.2426L75.4393 13.3033L72.2574 10.1213L69.0754 13.3033L68.0147 12.2426L72.2574 8L76.5 12.2426Z" fill="#41522E"/>
<path d="M76.5 15.8324L75.4393 14.7718L72.2574 17.9538L69.0754 14.7718L68.0147 15.8324L72.2574 20.0751L76.5 15.8324Z" fill="#41522E" fill-opacity="1"/>
<rect x="0.5" y="0.5" width="88" height="27" rx="3.5" stroke="#E5E5E5"/>
</svg>
